<mxfile host="app.diagrams.net" modified="2024-03-14T08:07:43.959Z" agent="Mozilla/5.0 (X11; Ubuntu; Linux x86_64; rv:123.0) Gecko/20100101 Firefox/123.0" etag="QubSDi8nmohXdeAZCpIa" version="24.0.5" type="github">
  <diagram name="Page-1" id="_CV5ww3CdWhXZDCdRnDU">
    <mxGraphModel dx="1434" dy="766" grid="1" gridSize="10" guides="1" tooltips="1" connect="1" arrows="1" fold="1" page="1" pageScale="1" pageWidth="827" pageHeight="1169" math="0" shadow="0">
      <root>
        <mxCell id="0" />
        <mxCell id="1" parent="0" />
        <mxCell id="EnrCB8BXGhhp7N-2kcLx-1" style="edgeStyle=orthogonalEdgeStyle;rounded=0;orthogonalLoop=1;jettySize=auto;html=1;exitX=1;exitY=0.25;exitDx=0;exitDy=0;entryX=0;entryY=0.25;entryDx=0;entryDy=0;" edge="1" parent="1" source="XBANJo7eA5kyvE9hvOjh-1" target="XBANJo7eA5kyvE9hvOjh-2">
          <mxGeometry relative="1" as="geometry" />
        </mxCell>
        <mxCell id="EnrCB8BXGhhp7N-2kcLx-2" value="1. POST /search" style="edgeLabel;html=1;align=center;verticalAlign=middle;resizable=0;points=[];" vertex="1" connectable="0" parent="EnrCB8BXGhhp7N-2kcLx-1">
          <mxGeometry y="3" relative="1" as="geometry">
            <mxPoint as="offset" />
          </mxGeometry>
        </mxCell>
        <mxCell id="XBANJo7eA5kyvE9hvOjh-1" value="web application" style="rounded=0;whiteSpace=wrap;html=1;fillColor=#d5e8d4;strokeColor=#82b366;" parent="1" vertex="1">
          <mxGeometry x="110" y="210" width="130" height="60" as="geometry" />
        </mxCell>
        <mxCell id="XBANJo7eA5kyvE9hvOjh-9" style="edgeStyle=orthogonalEdgeStyle;rounded=0;orthogonalLoop=1;jettySize=auto;html=1;dashed=1;" parent="1" source="XBANJo7eA5kyvE9hvOjh-2" target="XBANJo7eA5kyvE9hvOjh-3" edge="1">
          <mxGeometry relative="1" as="geometry" />
        </mxCell>
        <mxCell id="EnrCB8BXGhhp7N-2kcLx-3" style="edgeStyle=orthogonalEdgeStyle;rounded=0;orthogonalLoop=1;jettySize=auto;html=1;exitX=0;exitY=0.75;exitDx=0;exitDy=0;entryX=1;entryY=0.75;entryDx=0;entryDy=0;" edge="1" parent="1" source="XBANJo7eA5kyvE9hvOjh-2" target="XBANJo7eA5kyvE9hvOjh-1">
          <mxGeometry relative="1" as="geometry" />
        </mxCell>
        <mxCell id="EnrCB8BXGhhp7N-2kcLx-4" value="2. return" style="edgeLabel;html=1;align=center;verticalAlign=middle;resizable=0;points=[];" vertex="1" connectable="0" parent="EnrCB8BXGhhp7N-2kcLx-3">
          <mxGeometry y="2" relative="1" as="geometry">
            <mxPoint as="offset" />
          </mxGeometry>
        </mxCell>
        <mxCell id="XBANJo7eA5kyvE9hvOjh-2" value="search and recommandation engine" style="rounded=0;whiteSpace=wrap;html=1;fillColor=#d5e8d4;strokeColor=#82b366;" parent="1" vertex="1">
          <mxGeometry x="380" y="210" width="130" height="60" as="geometry" />
        </mxCell>
        <mxCell id="XBANJo7eA5kyvE9hvOjh-3" value="Amazon Elasticsearch Service" style="sketch=0;outlineConnect=0;fontColor=#232F3E;gradientColor=none;strokeColor=#ffffff;fillColor=#232F3E;dashed=0;verticalLabelPosition=middle;verticalAlign=bottom;align=center;html=1;whiteSpace=wrap;fontSize=10;fontStyle=1;spacing=3;shape=mxgraph.aws4.productIcon;prIcon=mxgraph.aws4.elasticsearch_service;" parent="1" vertex="1">
          <mxGeometry x="405" y="30" width="80" height="120" as="geometry" />
        </mxCell>
        <mxCell id="XBANJo7eA5kyvE9hvOjh-6" value="&lt;div&gt;Redis: profile and&lt;/div&gt;&lt;div&gt;&amp;nbsp;preference informaitons&lt;/div&gt;" style="image;sketch=0;aspect=fixed;html=1;points=[];align=center;fontSize=12;image=img/lib/mscae/Cache_Redis_Product.svg;" parent="1" vertex="1">
          <mxGeometry x="409.29" y="330" width="71.43" height="60" as="geometry" />
        </mxCell>
        <mxCell id="XBANJo7eA5kyvE9hvOjh-8" style="edgeStyle=orthogonalEdgeStyle;rounded=0;orthogonalLoop=1;jettySize=auto;html=1;entryX=0.5;entryY=-0.017;entryDx=0;entryDy=0;entryPerimeter=0;dashed=1;" parent="1" source="XBANJo7eA5kyvE9hvOjh-2" target="XBANJo7eA5kyvE9hvOjh-6" edge="1">
          <mxGeometry relative="1" as="geometry" />
        </mxCell>
      </root>
    </mxGraphModel>
  </diagram>
</mxfile>
